<svg class="svg-icon" style="width: 1em;height: 1em;vertical-align: middle;fill: currentColor;overflow: hidden;" viewBox="0 0 1024 1024" version="1.1" xmlns="http://www.w3.org/2000/svg"><path d="M938.666667 426.666667h-170.666667a85.333333 85.333333 0 0 0-85.333333 85.333333v341.333333a85.333333 85.333333 0 0 0 85.333333 85.333334h170.666667a85.333333 85.333333 0 0 0 85.333333-85.333334v-341.333333a85.333333 85.333333 0 0 0-85.333333-85.333333z m0 426.666666h-170.666667v-341.333333h170.666667z m42.666666-768H42.666667a42.666667 42.666667 0 0 0-42.666667 42.666667v597.333333a42.666667 42.666667 0 0 0 42.666667 42.666667h341.333333v85.333333H320a21.333333 21.333333 0 0 0-21.333333 21.333334v42.666666a21.333333 21.333333 0 0 0 21.333333 21.333334H597.333333v-256H85.333333V170.666667h853.333334v170.666666h85.333333V128a42.666667 42.666667 0 0 0-42.666667-42.666667z"  /></svg>